<svg width="23" height="21" viewBox="0 0 23 21" fill="none" xmlns="http://www.w3.org/2000/svg">
<path d="M21.9956 0.497052C20.9577 -0.0618043 19.8001 1.01599 19.1215 1.65468C17.5647 3.17158 16.2474 4.92799 14.7704 6.52472C13.1337 8.28113 11.6168 10.0375 9.94028 11.7541C8.98224 12.7121 7.94436 13.75 7.30567 14.9476C5.86861 13.5503 4.63114 12.0335 3.03441 10.796C1.87678 9.91784 -0.0393044 9.27915 0.00061391 11.3948C0.0804506 14.1493 2.51547 17.1032 4.31179 18.9793C5.07024 19.7777 6.0682 20.616 7.22583 20.6559C8.62297 20.7357 10.06 19.0591 10.8983 18.141C12.3754 16.5443 13.5729 14.7479 14.9301 13.1113C16.6865 10.9557 18.4828 8.83998 20.1993 6.64448C21.2771 5.28725 24.6701 1.93405 21.9956 0.497052ZM1.75696 11.2351C1.71704 11.2351 1.67712 11.2351 1.59728 11.275C1.43761 11.2351 1.31785 11.1952 1.15818 11.1153C1.27794 11.0355 1.47753 11.0754 1.75696 11.2351Z" fill="white"/>
</svg>
