<svg width="26" height="26" viewBox="0 0 26 26" fill="none" xmlns="http://www.w3.org/2000/svg">
<path d="M23.8333 13.7223C23.7383 13.7228 23.644 13.7046 23.556 13.6687C23.4681 13.6327 23.388 13.5798 23.3205 13.5129L13 3.18508L2.67942 13.5129C2.54126 13.6312 2.36354 13.693 2.18177 13.686C2.00001 13.679 1.82759 13.6036 1.69896 13.475C1.57034 13.3464 1.49499 13.1739 1.48797 12.9922C1.48094 12.8104 1.54277 12.6327 1.66109 12.4945L12.4944 1.66119C12.6297 1.52667 12.8128 1.45117 13.0036 1.45117C13.1944 1.45117 13.3774 1.52667 13.5128 1.66119L24.3461 12.4945C24.4455 12.5959 24.5128 12.7243 24.5396 12.8638C24.5664 13.0032 24.5515 13.1474 24.4968 13.2784C24.442 13.4094 24.3499 13.5214 24.2319 13.6003C24.1139 13.6793 23.9753 13.7217 23.8333 13.7223Z" fill="#F36F21"/>
<path d="M13 5.62622L4.33337 14.3218V23.1112C4.33337 23.4943 4.48556 23.8617 4.75644 24.1326C5.02733 24.4035 5.39473 24.5557 5.77782 24.5557H10.8334V17.3334H15.1667V24.5557H20.2223C20.6054 24.5557 20.9728 24.4035 21.2436 24.1326C21.5145 23.8617 21.6667 23.4943 21.6667 23.1112V14.2712L13 5.62622Z" fill="#F36F21"/>
</svg>
