<svg width="41" height="41" viewBox="0 0 41 41" fill="none" xmlns="http://www.w3.org/2000/svg">
<path d="M20.7373 17.8188C23.3239 17.8188 25.4293 15.7134 25.4293 13.1268C25.4293 10.5402 23.3239 8.43481 20.7373 8.43481C18.1507 8.43481 16.0453 10.5402 16.0453 13.1268C16.0453 15.7134 18.15 17.8188 20.7373 17.8188ZM20.7373 9.77538C22.5853 9.77538 24.0887 11.2788 24.0887 13.1268C24.0887 14.9748 22.5853 16.4782 20.7373 16.4782C18.8893 16.4782 17.3859 14.9748 17.3859 13.1268C17.3859 11.2788 18.8893 9.77538 20.7373 9.77538Z" fill="#F36F21"/>
<path d="M33.659 25.192H28.8591L30.9015 22.2427C34.759 17.101 34.2006 8.64933 29.7077 4.15708C27.2806 1.72931 24.0525 0.39209 20.6186 0.39209C17.1854 0.39209 13.9573 1.72931 11.5296 4.15708C7.03665 8.64933 6.47831 17.1016 10.3204 22.2226L12.3768 25.1926H7.34096L0 40.6085H41L33.659 25.192ZM11.4083 21.4384C7.92344 16.7913 8.4228 9.15875 12.478 5.10419C14.6524 2.92979 17.544 1.73199 20.6193 1.73199C23.6946 1.73199 26.5855 2.92979 28.7606 5.10419C32.8158 9.15875 33.3152 16.792 29.815 21.4585L20.6186 34.7388L14.0076 25.192L11.4083 21.4384ZM8.1882 26.5325H13.3052L20.6186 37.0942L27.9315 26.5325H32.8118L38.8765 39.268H2.12346L8.1882 26.5325Z" fill="#F36F21"/>
</svg>
