<svg width="36" height="36" viewBox="0 0 36 36" fill="none" xmlns="http://www.w3.org/2000/svg">
<path d="M35.0553 27.7727L27.7688 22.9135C26.8441 22.3018 25.6046 22.503 24.921 23.376L22.7985 26.105C22.5257 26.4646 22.0299 26.569 21.6353 26.3498L21.2316 26.1272C19.8931 25.3977 18.2278 24.4894 14.8725 21.1329C11.5172 17.7764 10.6072 16.1098 9.87763 14.7739L9.65625 14.3702C9.43402 13.9756 9.53638 13.4777 9.89619 13.2027L12.6233 11.0809C13.4959 10.3972 13.6975 9.15803 13.0865 8.23306L8.22722 0.946536C7.60104 0.00462877 6.34474 -0.278126 5.37534 0.304608L2.32838 2.13492C1.37101 2.69776 0.668621 3.6093 0.368501 4.67852C-0.728703 8.67632 0.0967125 15.5759 10.2604 25.7408C18.3454 33.8252 24.3644 35.9993 28.5014 35.9993C29.4535 36.0034 30.4018 35.8795 31.321 35.631C32.3904 35.3312 33.3021 34.6287 33.8646 33.6711L35.6967 30.626C36.2803 29.6564 35.9977 28.3993 35.0553 27.7727ZM34.663 30.0104L32.8351 33.0574C32.4312 33.7486 31.7755 34.2568 31.0053 34.4756C27.3147 35.4888 20.8668 34.6496 11.1093 24.892C1.35168 15.1344 0.512479 8.68714 1.52574 4.99593C1.7448 4.22486 2.25365 3.56831 2.9457 3.16379L5.99267 1.33587C6.41328 1.08278 6.95855 1.20546 7.23026 1.61419L9.8699 5.57719L12.0854 8.90009C12.3507 9.3013 12.2635 9.83904 11.885 10.1359L9.15724 12.2578C8.32712 12.8925 8.09006 14.0411 8.60115 14.9526L8.81776 15.3462C9.58447 16.7523 10.5377 18.5017 14.0178 21.9812C17.4979 25.4607 19.2466 26.4139 20.6522 27.1806L21.0463 27.3978C21.9578 27.9088 23.1064 27.6718 23.7411 26.8417L25.863 24.1139C26.1599 23.7356 26.6975 23.6485 27.0988 23.9135L34.3847 28.7728C34.7937 29.0443 34.9164 29.5898 34.663 30.0104Z" fill="#F36F21"/>
<path d="M20.3989 6.00324C26.0288 6.0095 30.5911 10.5719 30.5974 16.2018C30.5974 16.5331 30.866 16.8016 31.1973 16.8016C31.5286 16.8016 31.7972 16.5331 31.7972 16.2018C31.7902 9.90951 26.6911 4.81036 20.3989 4.80347C20.0676 4.80347 19.799 5.07202 19.799 5.40335C19.799 5.73469 20.0676 6.00324 20.3989 6.00324Z" fill="#F36F21"/>
<path d="M20.3989 9.60261C24.0417 9.6069 26.9937 12.5589 26.9979 16.2017C26.9979 16.533 27.2666 16.8015 27.5978 16.8015C27.9292 16.8015 28.1977 16.533 28.1977 16.2017C28.1927 11.8965 24.704 8.40775 20.3989 8.40283C20.0676 8.40283 19.799 8.67139 19.799 9.00272C19.799 9.33405 20.0676 9.60261 20.3989 9.60261Z" fill="#F36F21"/>
<path d="M20.3989 13.2022C22.0547 13.2042 23.3964 14.546 23.3985 16.2018C23.3985 16.5331 23.6671 16.8017 23.9984 16.8017C24.3296 16.8017 24.5983 16.5331 24.5983 16.2018C24.5956 13.8837 22.717 12.005 20.3989 12.0024C20.0676 12.0024 19.799 12.271 19.799 12.6023C19.799 12.9337 20.0676 13.2022 20.3989 13.2022Z" fill="#F36F21"/>
</svg>
