<svg width="130" height="110" viewBox="0 0 130 110" fill="none" xmlns="http://www.w3.org/2000/svg">
<path d="M81.2563 25.6289C75.6191 24.8565 69.4997 25.1282 63.5606 26.415C62.0989 26.7318 61.1706 28.1738 61.4874 29.6358C61.7627 30.9043 62.8844 31.7709 64.1319 31.7709C64.3218 31.7709 64.5148 31.7508 64.7082 31.7089C70.0355 30.5542 75.5028 30.3076 80.5213 30.9949C82.0041 31.1986 83.3691 30.1611 83.5722 28.6793C83.7751 27.1978 82.7384 25.832 81.2563 25.6289Z" fill="#F36F21"/>
<path d="M100.996 39.6574C99.6844 40.3765 99.2045 42.0228 99.9239 43.3342C100.138 43.724 100.341 44.1193 100.528 44.5096C100.994 45.48 101.962 46.046 102.972 46.046C103.365 46.046 103.764 45.9601 104.142 45.7786C105.49 45.1311 106.059 43.5132 105.411 42.1648C105.182 41.6874 104.933 41.2045 104.672 40.7297C103.953 39.4172 102.306 38.9384 100.996 39.6574Z" fill="#F36F21"/>
<path d="M105.009 48.6351C103.527 48.8397 102.492 50.207 102.696 51.6883C103.596 58.2017 101.864 64.6642 97.8184 69.8857C96.9026 71.0679 97.1184 72.7694 98.3009 73.6852C98.7942 74.0676 99.3782 74.2527 99.9576 74.2527C100.766 74.2527 101.567 73.8919 102.1 73.203C107.046 66.8201 109.163 58.916 108.062 50.9471C107.857 49.4653 106.489 48.4327 105.009 48.6351Z" fill="#F36F21"/>
<path d="M121.916 46.875C120.749 46.875 119.641 47.1266 118.638 47.5753C117.174 38.9448 113.091 31.5434 106.617 25.8953C100.248 20.3393 91.8946 16.6668 82.2715 15.1588C82.646 14.0625 82.8522 12.8894 82.8522 11.6679C82.8522 5.69447 77.9924 0.834961 72.019 0.834961C66.0456 0.834961 61.1859 5.69447 61.1859 11.6679C61.1859 12.9209 61.4022 14.1237 61.7955 15.2444C57.2496 15.9741 52.8735 17.1614 48.728 18.7943L35.0064 6.91221C34.2421 6.25053 33.1726 6.07 32.2332 6.44274C31.2935 6.81648 30.6402 7.6823 30.5389 8.68853L28.7242 26.7215C20.8849 31.1597 15.9093 37.5917 13.536 46.3413C12.1809 51.3382 11.3194 51.6281 8.54095 51.8628C4.2743 52.2218 2.20827 54.054 1.22616 55.5276C-0.196477 57.6627 -0.382337 60.4095 0.673406 63.6925L3.82007 73.4747C5.29907 78.071 8.03923 79.0355 10.0776 79.0355H13.0879C20.0883 88.149 26.5843 90.3163 35.0416 92.4248C34.7695 95.9046 34.2947 100.029 33.8333 103.748H26.9161C25.4204 103.748 24.208 104.961 24.208 106.456C24.208 107.952 25.4204 109.164 26.9161 109.164H36.2223H51.1187H55.7721C57.2678 109.164 58.4805 107.952 58.4805 106.456C58.4805 104.961 57.2681 103.748 55.7721 103.748H54.7379L56.4145 98.0422C62.9122 99.0494 69.6079 98.5835 77.9302 96.5487C77.9637 96.8402 77.9983 97.1348 78.0331 97.4333C78.357 100.204 78.7244 103.344 78.6518 106.392C78.6346 107.121 78.9121 107.827 79.4217 108.349C79.9313 108.87 80.6297 109.165 81.3592 109.165H97.1428H106.449C107.945 109.165 109.158 107.952 109.158 106.456C109.158 104.961 107.945 103.748 106.449 103.748H100.521C102.951 93.918 107.5 83.9981 110.745 79.8087C116.308 72.6259 119.248 64.0472 119.248 54.9993C119.248 53.506 120.444 52.2913 121.915 52.2913C123.386 52.2913 124.583 53.506 124.583 54.9993C124.583 55.716 124.296 56.4166 123.795 56.9216C122.741 57.9832 122.748 59.6978 123.81 60.7518C124.338 61.2761 125.028 61.5376 125.717 61.5376C126.413 61.5376 127.11 61.2705 127.639 60.737C129.162 59.2037 130 57.1658 130 54.9993C130 50.5198 126.373 46.875 121.916 46.875ZM72.0193 6.2518C75.006 6.2518 77.4359 8.68168 77.4359 11.6681C77.4359 14.6548 75.006 17.0847 72.0193 17.0847C69.0326 17.0847 66.6027 14.6548 66.6027 11.6681C66.6027 8.68168 69.0326 6.2518 72.0193 6.2518ZM106.463 76.4922C102.14 82.0723 97.2776 93.6809 94.9544 103.748H84.0392C83.9392 101.304 83.6639 98.9499 83.4128 96.8044C83.2506 95.4183 83.0975 94.1089 83.0101 92.9288C82.9499 92.1206 82.5312 91.3815 81.8683 90.9148C81.2056 90.4479 80.3685 90.3039 79.5875 90.519C69.5721 93.2888 62.2398 93.8177 55.0685 92.2889C53.6822 91.9937 52.3047 92.8156 51.9053 94.1742L49.0921 103.748H39.2918C39.8417 99.2693 40.3945 94.2902 40.6012 90.4842C40.6718 89.1824 39.8052 88.0149 38.5384 87.7059C29.0924 85.4028 23.3909 84.0124 16.6345 74.7334C16.1249 74.0336 15.3108 73.6195 14.445 73.6195H10.0781C9.69343 73.6195 9.24452 72.6478 8.9769 71.816L5.83024 62.0342C5.31989 60.4478 5.28587 59.2042 5.73427 58.5313C6.188 57.8504 7.34632 57.3989 8.99645 57.2603C15.1836 56.7383 17.2027 53.5185 18.7645 47.7594C21.5394 37.529 27.9447 33.1948 32.5214 30.8246C33.3339 30.4036 33.879 29.601 33.9709 28.6908L35.4065 14.4235L46.4425 23.98C47.2256 24.658 48.3268 24.8309 49.2794 24.4231C54.2118 22.3152 59.7543 20.8687 65.3776 20.2171C67.2133 21.6466 69.5178 22.5015 72.0193 22.5015C74.5558 22.5015 76.8902 21.6228 78.7381 20.1567C95.9182 22.0364 113.832 32.1007 113.832 54.9998C113.832 62.8358 111.284 70.2677 106.463 76.4922Z" fill="#F36F21"/>
<path d="M32.3622 44.1478C30.87 44.1478 29.6538 45.3651 29.6538 46.8567C29.6538 48.3482 30.87 49.5647 32.3622 49.5647C33.8539 49.5647 35.0704 48.3482 35.0704 46.8567C35.0706 45.3648 33.8539 44.1478 32.3622 44.1478Z" fill="#F36F21"/>
<path d="M72.4539 103.749H69.9266C68.431 103.749 67.2184 104.961 67.2184 106.457C67.2184 107.952 68.431 109.165 69.9266 109.165H72.4539C73.9494 109.165 75.1621 107.952 75.1621 106.457C75.1624 104.961 73.9497 103.749 72.4539 103.749Z" fill="#F36F21"/>
</svg>
