<svg width="104" height="104" viewBox="0 0 104 104" fill="none" xmlns="http://www.w3.org/2000/svg">
<path d="M93.9028 0H22.6954C21.5514 0 20.6237 0.927469 20.6237 2.07167V72.9686L9.99456 83.5977C7.36957 86.2227 7.36957 90.4944 9.99456 93.1196C11.3071 94.4322 13.0315 95.0885 14.7556 95.0885C16.4797 95.0885 18.2043 94.4322 19.5167 93.1196L20.6235 92.0128V101.928C20.6235 103.073 21.5512 104 22.6952 104H76.8406C77.39 104 77.9167 103.782 78.3055 103.393L95.3674 86.3312C95.7558 85.9428 95.9741 85.4159 95.9741 84.8662V2.07167C95.9745 0.927469 95.0469 0 93.9028 0ZM16.587 90.1895C15.577 91.1995 13.9342 91.1993 12.9246 90.1895C11.9151 89.1798 11.9151 87.5369 12.9246 86.5274L32.7744 66.6776L36.4368 70.34L16.587 90.1895ZM78.909 96.9304L78.8996 86.9251L88.9054 86.9342L78.909 96.9304ZM91.8312 82.7933L76.8278 82.7797C76.8271 82.7797 76.8265 82.7797 76.8259 82.7797C76.2765 82.7797 75.7496 82.9981 75.361 83.3865C74.9722 83.7753 74.7536 84.3032 74.7543 84.8532L74.7681 99.8567H24.7672V87.8692L40.8316 71.8049C41.6406 70.9958 41.6406 69.6841 40.8316 68.875L38.9368 66.9803L42.8986 63.0185C47.1591 66.5758 52.6386 68.7198 58.6101 68.7198C72.1469 68.7198 83.16 57.7068 83.16 44.1699C83.16 30.6331 72.1465 19.6205 58.6099 19.6205C45.0732 19.6205 34.06 30.6333 34.06 44.1701C34.06 50.247 36.2806 55.8145 39.9512 60.1059L36.0067 64.0504L34.2394 62.283C33.8508 61.8946 33.3239 61.6763 32.7744 61.6763C32.225 61.6763 31.6981 61.8946 31.3095 62.283L24.7672 68.8252V4.14334H91.8312V82.7933ZM38.2035 44.1701C38.2035 32.918 47.3578 23.7638 58.6099 23.7638C69.862 23.7638 79.0162 32.918 79.0162 44.1701C79.0162 55.4222 69.862 64.5765 58.6099 64.5765C47.3578 64.5765 38.2035 55.4222 38.2035 44.1701Z" fill="#F36F21"/>
<path d="M70.315 42.202H47.1118C45.9678 42.202 45.0401 43.1295 45.0401 44.2737C45.0401 45.4179 45.9678 46.3454 47.1118 46.3454H70.315C71.459 46.3454 72.3867 45.4179 72.3867 44.2737C72.3867 43.1295 71.459 42.202 70.315 42.202Z" fill="#F36F21"/>
<path d="M70.315 50.2817H47.1118C45.9678 50.2817 45.0401 51.2092 45.0401 52.3534C45.0401 53.4976 45.9678 54.4251 47.1118 54.4251H70.315C71.4592 54.4251 72.3867 53.4976 72.3867 52.3534C72.3867 51.2092 71.459 50.2817 70.315 50.2817Z" fill="#F36F21"/>
<path d="M56.4346 33.9152H47.112C45.968 33.9152 45.0403 34.8426 45.0403 35.9868C45.0403 37.131 45.968 38.0585 47.112 38.0585H56.4346C57.5786 38.0585 58.5063 37.131 58.5063 35.9868C58.5063 34.8426 57.5786 33.9152 56.4346 33.9152Z" fill="#F36F21"/>
<path d="M63.8928 33.9152H62.6496C61.5056 33.9152 60.578 34.8426 60.578 35.9868C60.578 37.131 61.5056 38.0585 62.6496 38.0585H63.8928C65.0368 38.0585 65.9644 37.131 65.9644 35.9868C65.9644 34.8426 65.0368 33.9152 63.8928 33.9152Z" fill="#F36F21"/>
</svg>
