<svg width="112" height="112" viewBox="0 0 112 112" fill="none" xmlns="http://www.w3.org/2000/svg">
<path d="M109.769 101.971H13.3752L25.5395 88.4362C26.6077 89.0025 27.8246 89.3248 29.1156 89.3248C32.0876 89.3248 34.6679 87.6227 35.938 85.1433L48.3669 88.2818C48.6957 92.2057 51.9925 95.2988 56.0002 95.2988C60.2252 95.2988 63.6624 91.8616 63.6624 87.6367C63.6624 85.3067 62.6159 83.2177 60.9696 81.8113L71.1053 57.5868L78.3234 75.993C76.5982 77.3994 75.4937 79.5396 75.4937 81.9336C75.4937 86.1586 78.9311 89.5958 83.1561 89.5958C87.381 89.5958 90.8182 86.1586 90.8182 81.9336C90.8182 81.0704 90.6725 80.2409 90.4081 79.4661L99.2617 70.612C100.133 69.7407 100.133 68.328 99.2617 67.4565C98.3905 66.5855 96.9778 66.5855 96.1065 67.4565L87.7542 75.8088C86.4725 74.8439 84.8796 74.2712 83.1554 74.2712C82.9187 74.2712 82.6849 74.2835 82.4534 74.3047L73.5785 51.6735L82.4941 30.3653C82.7122 30.3841 82.9323 30.3957 83.1552 30.3957C86.7031 30.3957 89.6943 27.9717 90.5623 24.6929H104.608C105.84 24.6929 106.839 23.6938 106.839 22.4618C106.839 21.2298 105.84 20.2308 104.608 20.2308H90.3958C89.3561 17.2313 86.5042 15.0709 83.1554 15.0709C78.9305 15.0709 75.493 18.5082 75.493 22.7333C75.493 25.142 76.6113 27.2932 78.3545 28.6991L71.2386 45.706L60.8436 19.1985C62.4054 17.7948 63.39 15.7604 63.39 13.4999C63.39 9.27472 59.9526 5.8375 55.7277 5.8375C51.5027 5.8375 48.0659 9.27472 48.0659 13.4999C48.0659 15.3278 48.7104 17.0078 49.7825 18.3262L31.39 46.1936C30.5928 45.9118 29.736 45.757 28.8437 45.757C27.9282 45.757 27.0502 45.9188 26.2358 46.2146L10.4363 25.4257V2.6385C10.4363 1.4065 9.43753 0.407471 8.20531 0.407471C6.97309 0.407471 5.97406 1.4065 5.97406 2.6385V24.5763H2.23103C0.998813 24.5761 0 25.5753 0 26.8073C0 28.0393 0.998813 29.0383 2.23103 29.0383H5.97428V51.4607H2.23103C0.998813 51.4607 0 52.4597 0 53.6917C0 54.9237 0.998813 55.9227 2.23103 55.9227H5.97428V78.8884H2.23103C0.998813 78.8884 0 79.8874 0 81.1194C0 82.3514 0.998813 83.3505 2.23103 83.3505H5.97428V104.202C5.97428 105.434 6.97309 106.433 8.20531 106.433H27.4275V109.361C27.4275 110.593 28.4263 111.592 29.6586 111.592C30.8908 111.592 31.8896 110.593 31.8896 109.361V106.433H54.3119V109.361C54.3119 110.593 55.3107 111.592 56.5429 111.592C57.7752 111.592 58.774 110.593 58.774 109.361V106.433H81.7392V109.361C81.7392 110.593 82.738 111.592 83.9703 111.592C85.2025 111.592 86.2013 110.593 86.2013 109.361V106.433H109.768C111.001 106.433 111.999 105.434 111.999 104.202C111.999 102.97 111.001 101.971 109.769 101.971ZM83.1563 78.7337C84.9205 78.7337 86.3564 80.1694 86.3564 81.9341C86.3564 83.6983 84.9207 85.1342 83.1563 85.1342C81.3916 85.1342 79.956 83.6985 79.956 81.9341C79.956 80.1694 81.3916 78.7337 83.1563 78.7337ZM83.1561 19.5337C84.9207 19.5337 86.3562 20.9693 86.3562 22.734C86.3562 24.4986 84.9205 25.9343 83.1561 25.9343C81.3914 25.9343 79.9557 24.4986 79.9557 22.734C79.9557 20.9693 81.3914 19.5337 83.1561 19.5337ZM29.1156 84.8625C27.351 84.8625 25.9155 83.4268 25.9155 81.6622C25.9155 79.8977 27.3512 78.4621 29.1156 78.4621C30.8801 78.4621 32.3157 79.8977 32.3157 81.6622C32.3155 83.427 30.8801 84.8625 29.1156 84.8625ZM56 90.8367C54.2353 90.8367 52.7999 89.4011 52.7999 87.6367C52.7999 85.872 54.2356 84.4363 56 84.4363C57.7644 84.4363 59.2001 85.872 59.2001 87.6367C59.2001 89.4011 57.7647 90.8367 56 90.8367ZM55.7285 10.3007C57.4932 10.3007 58.9288 11.7363 58.9288 13.501C58.9288 15.2656 57.4932 16.7013 55.7285 16.7013C53.9639 16.7013 52.5284 15.2656 52.5284 13.501C52.5284 11.7363 53.9639 10.3007 55.7285 10.3007ZM28.8437 50.2201C30.6086 50.2201 32.044 51.6556 32.044 53.4202C32.044 55.1849 30.6084 56.6205 28.8437 56.6205C27.0791 56.6205 25.6436 55.1849 25.6436 53.4202C25.6438 51.6558 27.0795 50.2201 28.8437 50.2201ZM10.4366 32.8011L22.6669 48.8936C21.7343 50.1628 21.1818 51.728 21.1818 53.42C21.1818 57.6452 24.619 61.0824 28.8439 61.0824C33.0689 61.0824 36.5063 57.6452 36.5063 53.42C36.5063 51.7067 35.9411 50.1232 34.9871 48.8457L53.48 20.826C54.1914 21.0448 54.9463 21.1631 55.7283 21.1631C56.0892 21.1631 56.4441 21.1362 56.7919 21.0877L68.7652 51.6195L56.8792 80.0263C56.5904 79.9933 56.2973 79.9743 55.9998 79.9743C53.1243 79.9743 50.6148 81.5672 49.3045 83.9164L36.7198 80.7384C36.262 76.9479 33.0273 73.9998 29.1152 73.9998C24.8903 73.9998 21.453 77.437 21.453 81.6619C21.453 82.9734 21.7847 84.2086 22.3678 85.289L10.4366 98.565V32.8011Z" fill="#F36F21"/>
</svg>
