<svg width="32" height="33" viewBox="0 0 32 33" fill="none" xmlns="http://www.w3.org/2000/svg">
<path fill-rule="evenodd" clip-rule="evenodd" d="M-0.00012207 16.2876C-0.00012207 25.2709 7.16335 32.5532 15.9999 32.5532C24.8365 32.5532 32 25.2709 32 16.2876C32 7.30434 24.8365 0.0219727 15.9999 0.0219727C7.16335 0.0219727 -0.00012207 7.30434 -0.00012207 16.2876ZM13.0666 23.7425L13.3388 19.5963L13.3386 19.5961L20.7579 12.7896C21.0835 12.4959 20.6868 12.3526 20.2545 12.6191L11.0981 18.4916L7.14301 17.2367C6.28888 16.9709 6.28275 16.3742 7.33477 15.9452L22.7468 9.90376C23.4507 9.57888 24.1301 10.0756 23.8614 11.1709L21.2367 23.7446C21.0535 24.6381 20.5224 24.8518 19.7866 24.4391L15.7884 21.4361L13.8666 23.3359C13.8605 23.3419 13.8545 23.3478 13.8485 23.3538C13.6335 23.5665 13.4557 23.7425 13.0666 23.7425Z" fill="white"/>
</svg>
