<svg width="32" height="33" viewBox="0 0 32 33" fill="none" xmlns="http://www.w3.org/2000/svg">
<path fill-rule="evenodd" clip-rule="evenodd" d="M16 0.0219727C7.16344 0.0219727 0 7.30434 0 16.2876C0 25.2709 7.16344 32.5532 16 32.5532C24.8366 32.5532 32 25.2709 32 16.2876C32 7.30434 24.8366 0.0219727 16 0.0219727ZM17.3028 21.4224C17.145 21.5915 16.837 21.6256 16.837 21.6256H15.817C15.817 21.6256 13.5665 21.7606 11.584 19.7015C9.42207 17.4549 7.51304 12.9977 7.51304 12.9977C7.51304 12.9977 7.40286 12.7053 7.52222 12.5646C7.65662 12.4055 8.02306 12.3955 8.02306 12.3955L10.4613 12.3796C10.4613 12.3796 10.6909 12.4171 10.8553 12.5379C10.9914 12.6379 11.0673 12.8236 11.0673 12.8236C11.0673 12.8236 11.4613 13.8182 11.983 14.7178C13.0022 16.4745 13.4764 16.8585 13.8219 16.6703C14.3261 16.3962 14.175 14.1872 14.175 14.1872C14.175 14.1872 14.1842 13.3859 13.9213 13.0285C13.7176 12.752 13.3336 12.6712 13.1642 12.6487C13.0264 12.6304 13.2518 12.3122 13.544 12.1697C13.983 11.9556 14.7577 11.9432 15.6734 11.9523C16.3871 11.9598 16.5924 12.004 16.8712 12.0714C17.5183 12.2272 17.4981 12.7266 17.4545 13.8043C17.4414 14.1266 17.4263 14.5006 17.4263 14.9327C17.4263 15.0298 17.4235 15.1333 17.4206 15.2397C17.4054 15.7919 17.3881 16.4241 17.7527 16.6594C17.9397 16.7794 18.3963 16.6769 19.539 14.7411C20.0808 13.8232 20.4864 12.7445 20.4864 12.7445C20.4864 12.7445 20.5758 12.5521 20.7135 12.4696C20.8546 12.3855 21.0449 12.4113 21.0449 12.4113L23.6108 12.3955C23.6108 12.3955 24.3821 12.303 24.5065 12.6512C24.6376 13.0152 24.2185 13.8665 23.1701 15.2609C22.1747 16.5851 21.6908 17.0719 21.7361 17.503C21.7692 17.8174 22.0838 18.1021 22.6868 18.6602C23.9471 19.8279 24.2849 20.4422 24.366 20.5898C24.3727 20.602 24.3777 20.611 24.3813 20.6169C24.9464 21.5523 23.7544 21.6256 23.7544 21.6256L21.4748 21.6573C21.4748 21.6573 20.9856 21.7539 20.3412 21.3124C20.0036 21.0814 19.6738 20.704 19.3596 20.3445C18.8798 19.7956 18.4365 19.2884 18.0582 19.4082C17.423 19.6098 17.4422 20.9751 17.4422 20.9751C17.4422 20.9751 17.4472 21.2674 17.3028 21.4224Z" fill="white"/>
</svg>
