<svg width="104" height="104" viewBox="0 0 104 104" fill="none" xmlns="http://www.w3.org/2000/svg">
<g clip-path="url(#clip0)">
<path d="M88.476 5.21069H5.1023C2.28881 5.21069 0 7.49971 0 10.313V83.2649C0 86.0784 2.28881 88.3672 5.1023 88.3672H60.6848C61.5843 88.3672 62.3133 87.6382 62.3133 86.7388C62.3133 85.8395 61.5845 85.1103 60.6848 85.1103H5.1023C4.08464 85.1103 3.2567 84.2824 3.2567 83.2647V22.3632H67.6327C68.5321 22.3632 69.2612 21.6342 69.2612 20.7347C69.2612 19.8353 68.5323 19.1063 67.6327 19.1063H3.2567V10.313C3.2567 9.29533 4.08464 8.4674 5.1023 8.4674H88.476C89.4936 8.4674 90.3216 9.29533 90.3216 10.313V19.1063H85.0021C84.1027 19.1063 83.3737 19.8353 83.3737 20.7347C83.3737 21.6342 84.1025 22.3632 85.0021 22.3632H90.3216V55.4738C90.3216 56.373 91.0504 57.1022 91.95 57.1022C92.8495 57.1022 93.5785 56.3732 93.5785 55.4738V10.313C93.5783 7.49971 91.2895 5.21069 88.476 5.21069Z" fill="#F36F21"/>
<path d="M78.0549 19.1066H74.58C73.6806 19.1066 72.9515 19.8356 72.9515 20.735C72.9515 21.6345 73.6804 22.3635 74.58 22.3635H78.0549C78.9543 22.3635 79.6833 21.6345 79.6833 20.735C79.6833 19.8356 78.9545 19.1066 78.0549 19.1066Z" fill="#F36F21"/>
<path d="M8.59361 12.1587H8.57614C7.6767 12.1587 6.95642 12.8877 6.95642 13.7871C6.95642 14.6866 7.69397 15.4156 8.59341 15.4156C9.49284 15.4156 10.2219 14.6866 10.2219 13.7871C10.2219 12.8877 9.49305 12.1587 8.59361 12.1587Z" fill="#F36F21"/>
<path d="M22.4892 12.1587H22.4717C21.5723 12.1587 20.852 12.8877 20.852 13.7871C20.852 14.6866 21.5895 15.4156 22.489 15.4156C23.3884 15.4156 24.1174 14.6866 24.1174 13.7871C24.1174 12.8877 23.3886 12.1587 22.4892 12.1587Z" fill="#F36F21"/>
<path d="M15.524 12.1587H15.5066C14.6071 12.1587 13.8868 12.8877 13.8868 13.7871C13.8868 14.6866 14.6244 15.4156 15.5238 15.4156C16.4233 15.4156 17.1523 14.6866 17.1523 13.7871C17.1523 12.8877 16.4235 12.1587 15.524 12.1587Z" fill="#F36F21"/>
<path d="M85.0021 12.1587H29.4196C28.5202 12.1587 27.7911 12.8877 27.7911 13.7871C27.7911 14.6866 28.52 15.4156 29.4196 15.4156H85.0021C85.9015 15.4156 86.6306 14.6866 86.6306 13.7871C86.6306 12.8877 85.9015 12.1587 85.0021 12.1587Z" fill="#F36F21"/>
<path d="M85.0021 60.7932C74.5266 60.7932 66.0043 69.3155 66.0043 79.7911C66.0043 90.2666 74.5266 98.789 85.0021 98.789C95.4777 98.789 104 90.2666 104 79.7911C104 69.3155 95.4777 60.7932 85.0021 60.7932ZM85.0021 95.5323C76.3224 95.5323 69.261 88.4708 69.261 79.7911C69.261 71.1114 76.3224 64.0499 85.0021 64.0499C93.6819 64.0499 100.743 71.1114 100.743 79.7911C100.743 88.4708 93.6819 95.5323 85.0021 95.5323Z" fill="#F36F21"/>
<path d="M93.687 78.163H86.6306V71.1066C86.6306 70.2074 85.9018 69.4781 85.0022 69.4781C84.1027 69.4781 83.3737 70.2072 83.3737 71.1066V78.163H76.3174C75.4179 78.163 74.6889 78.892 74.6889 79.7914C74.6889 80.6907 75.4177 81.4199 76.3174 81.4199H83.3737V88.4762C83.3737 89.3755 84.1025 90.1047 85.0022 90.1047C85.9016 90.1047 86.6306 89.3757 86.6306 88.4762V81.4199H93.687C94.5864 81.4199 95.3154 80.6909 95.3154 79.7914C95.3152 78.892 94.5864 78.163 93.687 78.163Z" fill="#F36F21"/>
<path d="M18.9979 31.2651C16.1844 31.2651 13.8956 33.5539 13.8956 36.3674C13.8956 39.1809 16.1844 41.4697 18.9979 41.4697C21.8114 41.4697 24.1002 39.1809 24.1002 36.3674C24.1002 33.5539 21.8114 31.2651 18.9979 31.2651ZM18.9979 38.2128C17.9802 38.2128 17.1523 37.3849 17.1523 36.3672C17.1523 35.3496 17.9802 34.5216 18.9979 34.5216C20.0155 34.5216 20.8435 35.3496 20.8435 36.3672C20.8435 37.3849 20.0155 38.2128 18.9979 38.2128Z" fill="#F36F21"/>
<path d="M78.0542 31.2651H29.4196C28.5202 31.2651 27.7911 31.9942 27.7911 32.8936C27.7911 33.793 28.52 34.522 29.4196 34.522H78.0542C78.9537 34.522 79.6827 33.793 79.6827 32.8936C79.6827 31.9942 78.9539 31.2651 78.0542 31.2651Z" fill="#F36F21"/>
<path d="M32.8934 38.2129H29.4196C28.5202 38.2129 27.7911 38.9419 27.7911 39.8413C27.7911 40.7408 28.52 41.4698 29.4196 41.4698H32.8934C33.7929 41.4698 34.5219 40.7408 34.5219 39.8413C34.5219 38.9419 33.7931 38.2129 32.8934 38.2129Z" fill="#F36F21"/>
<path d="M53.7369 38.2129H50.2631C49.3637 38.2129 48.6346 38.9419 48.6346 39.8413C48.6346 40.7408 49.3635 41.4698 50.2631 41.4698H53.7369C54.6364 41.4698 55.3654 40.7408 55.3654 39.8413C55.3654 38.9419 54.6366 38.2129 53.7369 38.2129Z" fill="#F36F21"/>
<path d="M43.3152 38.2129H39.8413C38.9419 38.2129 38.2129 38.9419 38.2129 39.8413C38.2129 40.7408 38.9417 41.4698 39.8413 41.4698H43.3152C44.2146 41.4698 44.9436 40.7408 44.9436 39.8413C44.9436 38.9419 44.2148 38.2129 43.3152 38.2129Z" fill="#F36F21"/>
<path d="M18.9979 48.6346C16.1844 48.6346 13.8956 50.9235 13.8956 53.7369C13.8956 56.5504 16.1844 58.8392 18.9979 58.8392C21.8114 58.8392 24.1002 56.5504 24.1002 53.7369C24.1002 50.9235 21.8114 48.6346 18.9979 48.6346ZM18.9979 55.5825C17.9802 55.5825 17.1523 54.7546 17.1523 53.7369C17.1523 52.7193 17.9802 51.8913 18.9979 51.8913C20.0155 51.8913 20.8435 52.7193 20.8435 53.7369C20.8435 54.7546 20.0155 55.5825 18.9979 55.5825Z" fill="#F36F21"/>
<path d="M78.0542 48.6346H29.4196C28.5202 48.6346 27.7911 49.3637 27.7911 50.2631C27.7911 51.1625 28.52 51.8915 29.4196 51.8915H78.0542C78.9537 51.8915 79.6827 51.1625 79.6827 50.2631C79.6827 49.3637 78.9539 48.6346 78.0542 48.6346Z" fill="#F36F21"/>
<path d="M32.8934 55.5825H29.4196C28.5202 55.5825 27.7911 56.3115 27.7911 57.211C27.7911 58.1104 28.52 58.8394 29.4196 58.8394H32.8934C33.7929 58.8394 34.5219 58.1104 34.5219 57.211C34.5219 56.3115 33.7931 55.5825 32.8934 55.5825Z" fill="#F36F21"/>
<path d="M53.7369 55.5825H50.2631C49.3637 55.5825 48.6346 56.3115 48.6346 57.211C48.6346 58.1104 49.3635 58.8394 50.2631 58.8394H53.7369C54.6364 58.8394 55.3654 58.1104 55.3654 57.211C55.3654 56.3115 54.6366 55.5825 53.7369 55.5825Z" fill="#F36F21"/>
<path d="M43.3152 55.5825H39.8413C38.9419 55.5825 38.2129 56.3115 38.2129 57.211C38.2129 58.1104 38.9417 58.8394 39.8413 58.8394H43.3152C44.2146 58.8394 44.9436 58.1104 44.9436 57.211C44.9436 56.3115 44.2148 55.5825 43.3152 55.5825Z" fill="#F36F21"/>
<path d="M18.9979 66.0043C16.1844 66.0043 13.8956 68.2931 13.8956 71.1066C13.8956 73.9201 16.1844 76.2089 18.9979 76.2089C21.8114 76.2089 24.1002 73.9201 24.1002 71.1066C24.1002 68.2931 21.8114 66.0043 18.9979 66.0043ZM18.9979 72.952C17.9802 72.952 17.1523 72.124 17.1523 71.1064C17.1523 70.0887 17.9802 69.2608 18.9979 69.2608C20.0155 69.2608 20.8435 70.0887 20.8435 71.1064C20.8435 72.1242 20.0155 72.952 18.9979 72.952Z" fill="#F36F21"/>
<path d="M62.4217 66.0043H29.4196C28.5202 66.0043 27.7911 66.7333 27.7911 67.6327C27.7911 68.5322 28.52 69.2612 29.4196 69.2612H62.4217C63.3212 69.2612 64.0502 68.5322 64.0502 67.6327C64.0502 66.7333 63.3212 66.0043 62.4217 66.0043Z" fill="#F36F21"/>
<path d="M32.8934 72.952H29.4196C28.5202 72.952 27.7911 73.681 27.7911 74.5805C27.7911 75.4797 28.52 76.2089 29.4196 76.2089H32.8934C33.7929 76.2089 34.5219 75.4799 34.5219 74.5805C34.5219 73.6812 33.7931 72.952 32.8934 72.952Z" fill="#F36F21"/>
<path d="M53.7369 72.952H50.2631C49.3637 72.952 48.6346 73.681 48.6346 74.5805C48.6346 75.4797 49.3635 76.2089 50.2631 76.2089H53.7369C54.6364 76.2089 55.3654 75.4799 55.3654 74.5805C55.3654 73.6812 54.6366 72.952 53.7369 72.952Z" fill="#F36F21"/>
<path d="M43.3152 72.952H39.8413C38.9419 72.952 38.2129 73.681 38.2129 74.5805C38.2129 75.4797 38.9417 76.2089 39.8413 76.2089H43.3152C44.2146 76.2089 44.9436 75.4799 44.9436 74.5805C44.9436 73.6812 44.2148 72.952 43.3152 72.952Z" fill="#F36F21"/>
</g>
<defs>
<clipPath id="clip0">
<rect width="104" height="104" fill="white"/>
</clipPath>
</defs>
</svg>
