<svg width="33" height="33" viewBox="0 0 33 33" fill="none" xmlns="http://www.w3.org/2000/svg">
<rect width="33" height="33" fill="#737373"/>
<path d="M16.5041 0H16.4959C7.39819 0 0 7.40025 0 16.5C0 20.1094 1.16325 23.4548 3.14119 26.1711L1.08488 32.3008L7.42706 30.2734C10.0361 32.0018 13.1484 33 16.5041 33C25.6018 33 33 25.5977 33 16.5C33 7.40231 25.6018 0 16.5041 0Z" fill="white"/>
<path d="M26.105 23.3C25.707 24.4241 24.1271 25.3563 22.8669 25.6286C22.0048 25.8121 20.8787 25.9586 17.0878 24.3869C12.2389 22.3781 9.11623 17.4508 8.87286 17.1311C8.6398 16.8114 6.91348 14.522 6.91348 12.1543C6.91348 9.78651 8.11592 8.63357 8.60061 8.13857C8.99867 7.73226 9.65661 7.54663 10.2877 7.54663C10.4919 7.54663 10.6755 7.55694 10.8405 7.56519C11.3252 7.58582 11.5685 7.61469 11.8882 8.37988C12.2863 9.33894 13.2557 11.7067 13.3712 11.9501C13.4887 12.1934 13.6063 12.5234 13.4413 12.8431C13.2866 13.1731 13.1505 13.3196 12.9071 13.6001C12.6637 13.8806 12.4327 14.0951 12.1894 14.3962C11.9666 14.6581 11.715 14.9386 11.9955 15.4233C12.276 15.8977 13.2454 17.4796 14.6726 18.7501C16.5144 20.3898 18.0077 20.9137 18.5419 21.1364C18.9399 21.3014 19.4143 21.2623 19.7051 20.9529C20.0743 20.5548 20.5301 19.8948 20.9942 19.2451C21.3242 18.779 21.7408 18.7213 22.178 18.8863C22.6235 19.0409 24.981 20.2063 25.4657 20.4476C25.9504 20.6909 26.27 20.8064 26.3876 21.0106C26.5031 21.2148 26.5031 22.1739 26.105 23.3Z" fill="#737373"/>
</svg>
